<svg width="321" height="104" viewBox="0 0 321 104" fill="none" xmlns="http://www.w3.org/2000/svg">
<g clip-path="url(#clip0_98_897)">
<path d="M189.748 8.72027C172.2 8.72027 157.92 22.7835 157.92 40.0632C157.92 57.343 172.2 71.4062 189.748 71.4062C207.295 71.4062 221.575 57.343 221.575 40.0632C221.575 22.7835 207.295 8.72027 189.748 8.72027ZM189.748 55.0557C181.498 55.0557 174.962 47.8096 174.962 39.8845C174.962 31.9594 181.498 25.044 189.748 25.044C197.998 25.044 204.356 31.4323 204.356 39.3574C204.356 47.2825 197.989 55.0557 189.748 55.0557ZM31.8274 8.72027C14.2797 8.72027 0 22.7835 0 40.0632C0 57.343 14.2797 71.4062 31.8274 71.4062C49.3751 71.4062 63.6547 57.343 63.6547 40.0632C63.6547 22.7835 49.3751 8.72027 31.8274 8.72027ZM31.8274 55.0557C23.5775 55.0557 17.0415 47.8096 17.0415 39.8845C17.0415 31.9594 23.5775 25.044 31.8274 25.044C40.0773 25.044 46.4356 31.4323 46.4356 39.3574C46.4356 47.2825 40.0684 55.0557 31.8274 55.0557ZM58.8504 88.4715C53.3712 97.7636 43.3009 104 31.8007 104C20.3006 104 10.2746 97.7904 4.78654 88.534C1.52743 83.0392 5.41705 76.0522 11.7843 76.0522C14.7148 76.0522 17.4411 77.6247 18.8709 80.1979C21.4284 84.8082 26.1173 87.9175 31.8007 87.9175C37.4842 87.9175 42.2974 84.7725 44.8638 80.1086C46.2669 77.5622 48.9932 76.0522 51.8793 76.0522C58.2111 76.0522 62.074 82.9945 58.8416 88.4715H58.8504ZM320.814 9.22955L309.473 60.5773H309.438C307.972 66.7155 302.307 71.3168 295.54 71.3168C288.773 71.3168 282.761 66.4296 281.518 59.9966L272.433 23.1409L272.282 23.123L262.878 60.8632H262.842C261.27 66.8584 255.676 71.3168 249.024 71.3168C242.373 71.3168 236.681 66.7869 235.162 60.7024L235.091 60.7203L227.862 30.1814C226.726 25.3924 230.331 20.7911 235.233 20.7732C238.759 20.7732 241.831 23.2034 242.639 26.6612L249.468 55.8866L258.58 19.3079H258.615C260.24 13.3842 265.791 8.99725 272.398 8.99725C279.573 8.99725 285.514 14.1794 286.509 20.8893L295.078 55.6632L306.09 5.93265C306.871 2.45704 309.935 0 313.469 0C318.283 0 321.861 4.49416 320.814 9.22955ZM111.565 19.4509C110.472 22.855 107.275 25.1423 103.723 25.0082C103.519 25.0082 103.324 24.9993 103.119 24.9993C94.825 24.9993 88.662 31.6914 88.662 39.9292V60.756C88.662 65.4914 84.8523 69.3244 80.1457 69.3244C75.439 69.3244 71.6294 65.4914 71.6294 60.756V39.9292C71.6294 22.8282 86.0067 8.91684 103.11 8.91684C103.554 8.91684 103.998 8.92577 104.442 8.94364C109.655 9.16701 113.163 14.4564 111.556 19.4509H111.565ZM155.38 19.4509C154.288 22.855 151.091 25.1423 147.539 25.0082C147.335 25.0082 147.139 24.9993 146.935 24.9993C138.641 24.9993 132.478 31.6914 132.478 39.9292V60.756C132.478 65.4914 128.668 69.3244 123.962 69.3244C119.255 69.3244 115.445 65.4914 115.445 60.756V39.9292C115.445 22.8282 129.823 8.91684 146.926 8.91684C147.37 8.91684 147.814 8.92577 148.258 8.94364C153.471 9.16701 156.979 14.4564 155.372 19.4509H155.38Z" fill="url(#paint0_linear_98_897)"/>
</g>
<defs>
<linearGradient id="paint0_linear_98_897" x1="0" y1="52" x2="321" y2="52" gradientUnits="userSpaceOnUse">
<stop offset="0.15" stop-color="#4E3FA7"/>
<stop offset="0.85" stop-color="#00BC9A"/>
</linearGradient>
<clipPath id="clip0_98_897">
<rect width="321" height="104" fill="white"/>
</clipPath>
</defs>
</svg>
